<svg width="292" height="89" viewBox="0 0 292 89" fill="none" xmlns="http://www.w3.org/2000/svg">
<path d="M0.25 44.6875C0.25 38.3958 1.41667 32.625 3.75 27.375C6.125 22.0833 9.3125 17.5417 13.3125 13.75C17.3542 9.91667 22.0208 6.95833 27.3125 4.875C32.6042 2.75 38.3125 1.6875 44.4375 1.6875C50.5625 1.6875 56.25 2.8125 61.5 5.0625C66.75 7.27083 71.25 10.3333 75 14.25C82.875 22.5417 86.8125 33.0625 86.8125 45.8125C86.8125 57.8958 82.75 68 74.625 76.125C66.3333 84.4167 55.7917 88.5625 43 88.5625C30.5 88.5625 20.2083 84.375 12.125 76C4.20833 67.75 0.25 57.3125 0.25 44.6875ZM10.9375 41.125C10.9375 46.5417 11.8125 51.875 13.5625 57.125C15.3542 62.3333 17.875 66.875 21.125 70.75C28.0833 79.1667 36.875 83.375 47.5 83.375C55.7083 83.375 62.4375 80.2917 67.6875 74.125C73.1042 67.7917 75.8125 59.4583 75.8125 49.125C75.8125 36.9167 72.5417 26.7917 66 18.75C59.5 10.8333 51.2708 6.875 41.3125 6.875C33.1042 6.875 26.0417 10 20.125 16.25C14 22.75 10.9375 31.0417 10.9375 41.125Z" fill="black"/>
<path d="M180.75 6.375L177.75 6.125C175.208 6.125 173.479 7.52083 172.562 10.3125C171.771 12.7708 171.375 17.0208 171.375 23.0625V53.9375C171.375 59.7292 171.792 63.8958 172.625 66.4375C173.458 68.9375 174.625 71.2292 176.125 73.3125C177.667 75.3958 179.458 77.1667 181.5 78.625C185.625 81.5417 190.271 83 195.438 83C200.646 83 204.938 82.3958 208.312 81.1875C211.688 79.9375 214.375 78.0833 216.375 75.625C220.083 71.125 221.938 63.7917 221.938 53.625L221.812 23.0625C221.812 16.9375 221.521 12.9375 220.938 11.0625C220.354 9.14583 219.646 7.85417 218.812 7.1875C218.021 6.47917 216.979 6.125 215.688 6.125L212.625 6.375C211.125 6.375 210.375 5.77083 210.375 4.5625C210.375 3.02083 211.521 2.25 213.812 2.25C216.104 2.25 218.104 2.41667 219.812 2.75C221.521 3.08333 223.312 3.25 225.188 3.25L235.5 2.25C238.167 2.25 239.5 3.02083 239.5 4.5625C239.5 5.77083 238.75 6.375 237.25 6.375L234.25 6.125C231.708 6.125 230.021 7.52083 229.188 10.3125C228.479 12.7292 228.125 16.9792 228.125 23.0625L228 56.8125C228 66.1042 225.042 73.7083 219.125 79.625C213.167 85.5833 205.229 88.5625 195.312 88.5625C184.521 88.5625 176 85.5833 169.75 79.625C163.375 73.4583 160.188 64.8958 160.188 53.9375V23.0625C160.188 17.0208 159.875 13.0417 159.25 11.125C158.625 9.16667 157.896 7.85417 157.062 7.1875C156.229 6.47917 155.146 6.125 153.812 6.125L150.75 6.375C149.25 6.375 148.5 5.77083 148.5 4.5625C148.5 3.02083 149.646 2.25 151.938 2.25C154.271 2.25 156.542 2.41667 158.75 2.75C160.958 3.08333 163.271 3.25 165.688 3.25C168.146 3.25 170.5 3.08333 172.75 2.75C175.042 2.41667 177.312 2.25 179.562 2.25C181.854 2.25 183 3.02083 183 4.5625C183 5.77083 182.25 6.375 180.75 6.375Z" fill="black"/>
<path d="M281.562 4.1875L284.188 3.8125C285.354 3.8125 286 4.77083 286.125 6.6875C286.25 8.5625 286.417 10.1042 286.625 11.3125C286.833 12.5208 287.042 13.6042 287.25 14.5625C287.458 15.5208 287.625 16.3333 287.75 17C287.917 17.6667 288 18.2292 288 18.6875C288 19.1042 287.75 19.5208 287.25 19.9375C286.792 20.3125 286.292 20.5 285.75 20.5C284.792 20.5 283.854 19.4792 282.938 17.4375C281.188 13.5625 279.729 11.0625 278.562 9.9375C275.854 7.52083 271.875 6.3125 266.625 6.3125C259.292 6.3125 254.375 8.5 251.875 12.875C251.083 14.2917 250.688 16.0208 250.688 18.0625C250.688 20.1042 251.167 22.0208 252.125 23.8125C253.125 25.6042 254.625 27.4167 256.625 29.25C258.667 31.0417 261.25 32.9792 264.375 35.0625C267.5 37.1458 270.854 39.4167 274.438 41.875C278.021 44.3333 280.812 46.5625 282.812 48.5625C284.812 50.5208 286.438 52.4792 287.688 54.4375C290.062 58.1458 291.25 61.75 291.25 65.25C291.25 68.75 290.75 71.875 289.75 74.625C288.75 77.3333 287.125 79.7083 284.875 81.75C280 86.2917 272.792 88.5625 263.25 88.5625C258.417 88.5625 253.083 87.5 247.25 85.375C245.917 84.9167 245.083 84.3958 244.75 83.8125C244.375 83.1042 244.042 81.7708 243.75 79.8125C243.458 77.8542 243.104 76.0833 242.688 74.5C242.312 72.9167 241.958 71.5 241.625 70.25L240.75 67C240.5 66.0417 240.375 65.25 240.375 64.625C240.375 63.125 240.938 62.375 242.062 62.375C243.562 62.375 244.646 63.5208 245.312 65.8125C246.479 69.8958 247.521 72.5417 248.438 73.75C251.979 78.4167 256.083 81.4583 260.75 82.875C262.125 83.2917 263.958 83.5 266.25 83.5C268.583 83.5 270.854 83.1667 273.062 82.5C275.312 81.7917 277.167 80.8542 278.625 79.6875C281.375 77.4375 282.75 74.7083 282.75 71.5C282.75 68.25 281.708 65.3333 279.625 62.75C277.583 60.125 275.104 57.8542 272.188 55.9375C269.312 53.9792 267.146 52.5417 265.688 51.625C264.271 50.7083 262.938 49.8333 261.688 49C251.146 41.9583 244.917 34.9583 243 28C242.5 26.1667 242.25 24.0625 242.25 21.6875C242.25 19.3125 242.833 16.875 244 14.375C245.167 11.875 246.833 9.6875 249 7.8125C253.792 3.72917 259.979 1.6875 267.562 1.6875C271.021 1.6875 273.792 2.04167 275.875 2.75C278.792 3.70833 280.688 4.1875 281.562 4.1875Z" fill="black"/>
<ellipse cx="5.30004" cy="1.77947" rx="5.30004" ry="1.77947" transform="matrix(0.999957 -0.00931698 -0.0142904 0.999898 92.5052 84.1476)" fill="#EEFF89"/>
<ellipse cx="5.23677" cy="2.1587" rx="5.23677" ry="2.1587" transform="matrix(0.999957 -0.00931698 -0.0142904 0.999898 92.5973 84.0976)" fill="#FFDE89"/>
<rect width="43.8159" height="10.7196" transform="matrix(0.00624987 0.99998 -0.999557 0.0297649 102.989 42.8989)" fill="#B9947F"/>
<ellipse cx="16.3496" cy="6.00742" rx="16.3496" ry="6.00742" transform="matrix(0.51006 0.860139 -0.872055 0.489408 97.8623 27.1576)" fill="#EEFF89"/>
<ellipse cx="16.594" cy="6.75359" rx="16.594" ry="6.75359" transform="matrix(0.51006 0.860139 -0.872055 0.489408 97.499 27)" fill="#FFDE89"/>
<ellipse cx="123.51" cy="31.0309" rx="31.2762" ry="29.8384" transform="rotate(51.7997 123.51 31.0309)" fill="#B9947F"/>
<ellipse cx="123.471" cy="31.3101" rx="25.9983" ry="25.5758" transform="rotate(51.7997 123.471 31.3101)" fill="#95DFDB"/>
<ellipse cx="15.9166" cy="4.10031" rx="15.9166" ry="4.10031" transform="matrix(-0.00811317 0.999967 -0.999599 0.0283108 142.932 15.9958)" fill="#E0F8F7"/>
<ellipse cx="7.91198" cy="3.46599" rx="7.91198" ry="3.46599" transform="matrix(-0.448254 0.893906 -0.906822 -0.421513 113.204 16.7844)" fill="#E0F8F7"/>
</svg>
